<svg xmlns="http://www.w3.org/2000/svg" width="330" height="330">
  <defs>
    <clipPath id="clip-en_flag">
      <path d="M0 0h330v330H0z"/>
    </clipPath>
    <style>
      .cls-3{fill:#d80027}.cls-4{fill:#0052b4}
    </style>
  </defs>
  <g id="en_flag" style="clip-path:url(#clip-en_flag)">
    <g id="Group_44" data-name="Group 44" transform="translate(-968 -518.941)">
      <circle id="Ellipse_5" data-name="Ellipse 5" cx="165.482" cy="165.482" r="165.482" transform="translate(968 518.008)" style="fill:#fff"/>
      <g id="united-kingdom" transform="translate(968.065 517.941)">
        <path id="Path_49" data-name="Path 49" class="cls-3" d="M154.829-511.474c-1.229.129-4.076.453-6.276.647l-4.076.388-.129 71.235-.194 71.3-71.3.194-71.235.129-.582 4.4c-.647 5.629-.647 28.274 0 33.9l.582 4.4 71.235.129 71.3.194.194 71.3.129 71.235 4.4.582c5.629.647 28.274.647 33.9 0l4.4-.582.129-71.235.194-71.3 71.3-.194 71.235-.129.582-4.4c.647-5.629.647-28.274 0-33.9l-.582-4.4-71.235-.129-71.3-.194-.194-71.235-.129-71.235-2.782-.453c-3.362-.518-26.461-1.035-29.566-.647Z" transform="translate(-.55 511.61)"/>
        <path id="Path_50" data-name="Path 50" class="cls-4" d="M151.79-501.088a163.691 163.691 0 0 0-42.055 20.188c-4.788 3.17-8.735 6.017-8.735 6.276s12.811 13.264 28.468 28.921l28.468 28.468v-42.9c0-23.551-.065-42.832-.129-42.767-.129.002-2.782.843-6.017 1.814Z" transform="translate(-36.008 508.535)"/>
        <path id="Path_51" data-name="Path 51" class="cls-4" d="M323-460.131v42.961l28.468-28.468c15.658-15.658 28.468-28.662 28.468-28.921 0-.906-17.34-11.97-24.392-15.593a175.888 175.888 0 0 0-26.139-10.8c-2.523-.776-5.047-1.553-5.5-1.747-.776-.264-.905 6.465-.905 42.568Z" transform="translate(-114.373 508.468)"/>
        <path id="Path_52" data-name="Path 52" class="cls-3" d="M354.509-420.391 323-388.882v20.057l36.685-36.685 36.75-36.75-2.912-2.976c-1.617-1.617-3.947-3.753-5.241-4.788l-2.265-1.876Z" transform="translate(-114.373 490.532)"/>
        <path id="Path_53" data-name="Path 53" class="cls-3" d="m64.494-431.018-4.594 4.982 31.574 31.574 31.574 31.574h20.057l-36.556-36.556C86.427-419.566 69.8-436 69.605-436a45.673 45.673 0 0 0-5.111 4.982Z" transform="translate(-21.5 484.92)"/>
        <path id="Path_54" data-name="Path 54" class="cls-4" d="M31.165-402.265c-8.735 13.2-16.3 28.856-20.122 41.8-.776 2.523-1.553 5.047-1.747 5.5-.259.776 6.47.906 42.573.906H94.83l-28.468-28.473C50.7-398.189 37.7-411 37.441-411s-3.106 3.947-6.276 8.735Z" transform="translate(-3.635 476.095)"/>
        <path id="Path_55" data-name="Path 55" class="cls-4" d="M398.968-382.532 370.5-354.063h42.961c36.1 0 42.832-.129 42.573-.906-.194-.453-.97-2.976-1.747-5.5a171.926 171.926 0 0 0-10.74-25.945C439.924-393.531 428.8-411 427.89-411c-.259 0-13.264 12.811-28.922 28.468Z" transform="translate(-131.14 476.095)"/>
        <path id="Path_56" data-name="Path 56" class="cls-4" d="M9.3-188.094c.194.453.971 2.976 1.747 5.5a171.935 171.935 0 0 0 10.74 25.945c3.623 7.117 14.752 24.586 15.658 24.586.259 0 13.264-12.811 28.921-28.468L94.83-189H51.869c-36.103 0-42.832.129-42.569.906Z" transform="translate(-3.635 397.731)"/>
        <path id="Path_57" data-name="Path 57" class="cls-3" d="m360.25-152.315 36.75 36.75 4.853-5.111 4.917-5.111-31.639-31.639L343.557-189H323.5Z" transform="translate(-114.549 397.731)"/>
        <path id="Path_58" data-name="Path 58" class="cls-4" d="M398.968-160.532c15.658 15.658 28.662 28.468 28.921 28.468.906 0 12.034-17.469 15.658-24.586a171.927 171.927 0 0 0 10.74-25.945c.776-2.523 1.553-5.047 1.747-5.5.259-.776-6.47-.906-42.573-.906H370.5Z" transform="translate(-131.14 397.731)"/>
        <path id="Path_59" data-name="Path 59" class="cls-3" d="M112.056-151.379 75.5-114.824l5.111 4.853 5.111 4.917 31.639-31.639L149-168.331l-.194-9.835-.194-9.834Z" transform="translate(-27.007 397.378)"/>
        <path id="Path_60" data-name="Path 60" class="cls-4" d="M129.274-112.661C113.746-97.133 101-84.193 101-83.934c0 .971 17.728 12.164 25.1 15.916 8.476 4.335 20.122 9.058 27.174 11l4.658 1.294v-42.638c0-23.422-.065-42.638-.194-42.638-.06 0-12.871 12.746-28.464 28.339Z" transform="translate(-36.008 380.787)"/>
        <path id="Path_61" data-name="Path 61" class="cls-4" d="M323-98.539c0 36.1.129 42.832.906 42.573.453-.194 2.976-.971 5.5-1.747a171.935 171.935 0 0 0 25.945-10.74c7.117-3.623 24.586-14.752 24.586-15.658 0-.259-12.811-13.264-28.468-28.921L323-141.5Z" transform="translate(-114.373 380.963)"/>
      </g>
    </g>
  </g>
</svg>
