<svg xmlns="http://www.w3.org/2000/svg" width="330" height="330">
  <defs>
    <clipPath id="clip-iq_flag">
      <path d="M0 0h330v330H0z"/>
    </clipPath>
    <style>
      .cls-3{fill:#007a3d}
    </style>
  </defs>
  <g id="iq_flag" style="clip-path:url(#clip-iq_flag)">
    <g id="Group_102" data-name="Group 102" transform="translate(-892 -1511.535)">
      <g id="Group_103" data-name="Group 103" transform="translate(1 863.598)">
        <g id="Group_99" data-name="Group 99" transform="translate(701 330)">
          <circle id="Ellipse_6" data-name="Ellipse 6" cx="164.5" cy="164.5" r="164.5" transform="translate(191 318)" style="fill:#fff"/>
        </g>
        <g id="Group_100" data-name="Group 100" transform="translate(958.058 780.031)">
          <path id="Path_74" data-name="Path 74" class="cls-3" d="M537.233 258.486a5.985 5.985 0 0 1-1.677-1.267c-.377-.526-.159-.548 1.4-.125 2.786.756 4.584.46 6.368-1.049l1.572-1.326 1.851.942a5.847 5.847 0 0 0 2.413.788c.8-.212 2.464-2.344 2.41-3.082-.065-.912.706-.683 1.077.317a3.572 3.572 0 0 1-2.242 4.709 5.126 5.126 0 0 1-3.2-.338c-1.728-.6-2.024-.594-2.891.07a6.548 6.548 0 0 1-7.081.361Z" transform="translate(-390.634 -246.556)"/>
          <path id="Path_75" data-name="Path 75" class="cls-3" d="M550.249 247.058c-.677-.862-1.489-4.115-1.227-4.914.231-.692.47-.831 1.1-.633 1.1.345 1.358 1.106 1.194 3.683-.129 2.1-.44 2.651-1.065 1.864Z" transform="translate(-396.758 -241.429)"/>
          <path id="Path_76" data-name="Path 76" class="cls-3" d="M344 247.423c-.222 1.576 2.795 5.49 4.156 6.2-.925.415-2.077.226-2.926.692-4.745 4.745-22.076 21.642-25.241 25.681 9.374.185 19.77-.127 28.559-.529-.008-6.369 6.031-6.7 10.073-9.017 2.079 3.275 7.3 3.024 7.954 7.953 0 5.9.011 14.792.011 21.209h-80.078c-1.409 6.221-7.024 10.968-14.849 9.015 2.421-2.529 6.5-3.4 7.956-6.892 1.231-7.65-2.459-12.375-4.845-16.714 3.947-1.436 4.546-1.8 8.559-4.492-2.817 8.558 7.321 7.618 14.848 7.422.254-2.905.107-6.335-2.123-6.76 2.88-1.046 3.358-1.4 7.956-5.3v11.53c17.892 0 37.191-.133 55.456-.133 0-3.608.956-9.4-1.9-9.4-2.727 0-.129 7.42-2.248 7.42h-42.825c0-1.6-.041-4.933-.041-7.337 1.815-1.815 1.6-1.657 14-14.059 1.236-1.239 9.935-9.1 17.547-16.482Z" transform="translate(-271.66 -244.133)"/>
          <path id="Path_77" data-name="Path 77" class="cls-3" d="M598.474 246.867c2.989 1.609 5.357 3.835 9.017 4.774-.426 1.516-1.774 2.114-2.127 3.71V287.7c4.089.9 4.95-1.416 6.9-2.65.531 5.177 3.829 10.251 3.712 14.315h-17.5v-52.494Z" transform="translate(-419.088 -243.882)"/>
          <path id="Path_78" data-name="Path 78" class="cls-3" d="M536.92 265.721s6.365-5.374 6.365-5.581v28.226l4.584-.007c0-10.754-.142-21.661-.142-31.657 1.861-1.862 5.5-4.557 6.416-6.44v50.554c-12.916 0-37.011.014-40.2.014-.593-10.492-.693-21.36 11.539-19.022v-4.283c-.374-.732-1.043.177-1.2-.775 1.941-1.944 2.6-2.439 7.858-7.034 0 5.543.1 18.63.1 18.63h4.636s.043-21.908.043-22.631Zm-15.088 22.36c.861 1.292 3.791 1.269 3.654-.907-.494-1.795-4.346-1.111-3.654.907Z" transform="translate(-380.867 -245.414)"/>
          <circle id="Ellipse_14" data-name="Ellipse 14" class="cls-3" cx="2.454" cy="2.454" transform="translate(22.148 58.984)" r="2.454"/>
          <path id="Path_79" data-name="Path 79" class="cls-3" d="M454.484 246.961c2.99 1.609 5.357 3.835 9.017 4.773-.424 1.514-1.774 2.115-2.125 3.71v32.346c4.088.9 4.948-1.418 6.894-2.652.53 5.178 3.828 10.25 3.712 14.315h-17.5v-52.492Z" transform="translate(-354.133 -243.925)"/>
        </g>
        <path id="Path_80" data-name="Path 80" d="M154.646-.063c123.212 0 154.745 109.2 154.745 109.2l-309.782-.043S31.434-.063 154.646-.063Z" transform="translate(902 648)" style="fill:#ce1126"/>
        <path id="Path_81" data-name="Path 81" d="M-.356.013 309.344 0S276.669 109.121 154.5 109.133-.356.013-.356.013Z" transform="translate(902 868)"/>
      </g>
    </g>
  </g>
</svg>
