<svg xmlns="http://www.w3.org/2000/svg" width="330" height="330">
  <defs>
    <clipPath id="clip-ku_flag">
      <path d="M0 0h330v330H0z"/>
    </clipPath>
    <style>
      .cls-1{clip-path:url(#clip-ku_flag)}.cls-2{fill:#fff}.cls-3{fill:#46ec67}.cls-4{fill:#f3162e}.cls-5{fill:#febd11;fill-rule:evenodd}
    </style>
  </defs>
  <g id="ku_flag" class="cls-1">
    <g id="Group_45" data-name="Group 45" transform="translate(-121 -317)">
      <circle id="Ellipse_6" data-name="Ellipse 6" class="cls-2" cx="164.5" cy="164.5" r="164.5" transform="translate(122 318)"/>
      <path id="Path_63" data-name="Path 63" class="cls-3" d="m-12296.621-2.438 308.858-.023s-33.724 108.4-154.167 108.1-154.326-107.044-154.326-107.044" transform="translate(12428.271 541.066)"/>
      <path id="Path_64" data-name="Path 64" class="cls-4" d="m-12297.621 105.614 309.188.046s-33.41-108.427-153.854-108.121-154.63 107.032-154.63 107.032" transform="translate(12429.271 320.461)"/>
      <path id="path4524" class="cls-5" d="m916.417 866.88 6.349 44.567 19.164-40.712-7.04 44.465 30.27-33.238-19.8 40.413 38.71-22.818-30.807 32.763 43.7-10.368-39.056 22.218 44.811 3-43.871 9.676 41.933 16.12-44.753-3.713 35.335 27.8-41.662-16.779 25.57 37.01-34.87-28.354 13.562 42.916-25-37.4.345 45.032-12.891-43.147-12.91 43.147.364-45.032-25.014 37.4 13.581-42.916-34.888 28.354 25.584-37.01-41.667 16.774 35.325-27.8-44.749 3.713 41.926-16.12-43.854-9.676 44.8-3-39.059-22.215 43.692 10.368-30.794-32.763 38.716 22.818-19.805-40.413 30.28 33.238-7.04-44.463 19.164 40.711Z" transform="translate(-630.279 -471.043)"/>
    </g>
  </g>
</svg>
